<svg xmlns="http://www.w3.org/2000/svg" xml:space="preserve" id="boy-is-finding-food-online" x="0" y="0" style="enable-background:new 0 0 850 850" version="1.1" viewBox="0 0 850 850">
  <g>
    <g>
      <g>
        <path d="M450.1,297.2c4.7-13.1,17.1-21.9,30.9-21.1c8,0.5,17,2.6,26.1,8.1c28.1,17,91.1,72.6,85.8,154.3
				c-5.2,78.6-5.4,138.3-103.7,134.2c-11.8-0.5-23.7-0.7-35.5-0.8c-43.9-0.3-139-3-184.2-19.2c-38.3-13.7-27.6-42.5-14.9-61.4
				c18.6-27.6,21.8-62.9,7.5-93c-0.7-1.4-1.3-2.8-2.1-4.2c-23.2-45.1,38.4-89.8,104.1-71.5C417.1,327.3,442.9,317.3,450.1,297.2z" style="fill:#f4f4f4"></path>
      </g>
      <g>
        <path d="M608.7,285.2c-2.2-2.7-13.8-4.4-17-4s-8.6-6.4-11.7-8s-4.8,3.3-8.6,5.2c-3.8,2-8-7.2-15.7-11.1
				c-7.7-3.9-13,17.9-13,17.9H608.7z" style="fill:#f4f4f4"></path>
      </g>
      <g>
        <path d="M388.1,285.2c-2.2-2.7-13.8-4.4-17-4c-3.1,0.4-8.6-6.4-11.7-8s-4.8,3.3-8.6,5.2c-3.8,2-8-7.2-15.7-11.1
				s-13,17.9-13,17.9H388.1z" style="fill:#f4f4f4"></path>
      </g>
      <g>
        <path d="M525.8,345.5c-2.2-2.7-13.8-4.4-17-4c-3.1,0.4-8.6-6.4-11.7-8s-4.8,3.3-8.6,5.2c-3.8,2-8-7.2-15.7-11.1
				c-7.7-3.9-13,17.9-13,17.9H525.8z" style="fill:#fff"></path>
      </g>
      <g>
        <path d="M294.5,366.2c0,0,10.9-16.8,21.3-12.8c10.4,4.1,24,12.9,32.7,10.7c8.7-2.2,18.4-9.1,24.1-7.4
				c5.7,1.7,15.6,9.5,15.6,9.5h-94.3" style="fill:#fff"></path>
      </g>
    </g>
    <g>
      <g>
        <ellipse cx="602.8" cy="596" rx="52.1" ry="5.3" style="fill:#f4f4f4"></ellipse>
      </g>
      <g>
        <g>
          <rect width="14.1" height="12.3" x="579.3" y="574.7" style="fill:#fff"></rect>
          <path d="M593.4,587.3h-14.1c-0.2,0-0.3-0.1-0.3-0.3v-12.3c0-0.2,0.1-0.3,0.3-0.3h14.1c0.2,0,0.3,0.1,0.3,0.3V587
					C593.7,587.2,593.6,587.3,593.4,587.3z M579.6,586.7h13.5V575h-13.5V586.7z" style="fill:#3e414e"></path>
        </g>
        <g>
          <path d="M565.5,598.6c5.2-0.2,13.8-3.7,16.8-3.4c2,0.2,8,0.4,11.9,0.4c2,0,3.6-1.6,3.6-3.6c0-1.1-0.1-2.3-0.2-3.6
					c-0.2-2.2-0.5-4.5-1.1-6.3c-0.3-0.8-0.5-1.5-0.9-2.1c-0.5-0.9-1.7-1.1-2.5-0.5c-2.2,1.7-6.8,4.8-9.4,3.6c-1.7-0.8-2.6-2.5-3.1-4
					c-0.4-1.2-1.9-1.5-2.8-0.6c-2.8,2.9-7.8,7.4-11.8,8.4c-5.8,1.4-12.3,3.6-12.6,6.7S560.4,598.8,565.5,598.6z" style="fill:#fff"></path>
          <path d="M564.9,598.9c-3.8,0-8.9-1.2-10.9-3.4c-0.6-0.7-0.9-1.4-0.9-2.1c0.2-2.6,4.4-4.9,12.8-6.9
					c3.9-0.9,9-5.6,11.6-8.3c0.5-0.5,1.2-0.7,1.9-0.5c0.7,0.2,1.2,0.6,1.4,1.3c0.4,1.3,1.3,3.1,3,3.8c2.5,1.2,7.2-2.1,9.1-3.5
					c0.5-0.3,1-0.5,1.6-0.4c0.6,0.1,1,0.5,1.3,1c0.3,0.6,0.6,1.3,0.9,2.2c0.5,1.7,0.9,3.8,1.1,6.4c0.1,1.1,0.2,2.4,0.2,3.7
					c0,1-0.4,2-1.1,2.8c-0.7,0.7-1.7,1.2-2.8,1.1c-4.2-0.1-10-0.2-12-0.4c-1.4-0.2-4.3,0.6-7.4,1.5c-3.1,0.9-6.7,1.8-9.3,1.9
					C565.3,598.9,565.1,598.9,564.9,598.9z M579,578.3c-0.4,0-0.7,0.1-1,0.4c-2.7,2.7-7.9,7.5-11.9,8.5c-8,1.9-12.1,4.1-12.3,6.4
					c0,0.5,0.2,1.1,0.7,1.6c2,2.1,7.3,3.3,11.1,3.2l0,0c2.6-0.1,6.1-1.1,9.2-1.9c3.3-0.9,6.1-1.7,7.6-1.5c2.2,0.3,9.5,0.4,11.9,0.4
					c0,0,0,0,0,0c0.9,0,1.7-0.3,2.3-1c0.6-0.6,0.9-1.4,0.9-2.3c0-1.3-0.1-2.5-0.2-3.6c-0.2-2.5-0.6-4.6-1.1-6.3
					c-0.3-0.8-0.6-1.5-0.9-2c-0.2-0.3-0.5-0.6-0.9-0.7c-0.4-0.1-0.8,0-1.1,0.3c-2.5,1.9-7,4.9-9.7,3.6c-1.5-0.7-2.6-2.1-3.3-4.2
					c-0.1-0.4-0.5-0.8-1-0.9C579.2,578.3,579.1,578.3,579,578.3z" style="fill:#3e414e"></path>
        </g>
        <g>
          <path d="M565.6,593.7c-0.1,0-0.3-0.1-0.3-0.3c0-0.2,0.1-0.3,0.3-0.3l25.9-3.6c0.2,0,0.3,0.1,0.3,0.3
					c0,0.2-0.1,0.3-0.3,0.3L565.6,593.7C565.6,593.7,565.6,593.7,565.6,593.7z" style="fill:#3e414e"></path>
        </g>
        <g>
          <path d="M559.5,597.9c4.2-4.8,1-8.5,0.2-9.3" style="fill:#fff"></path>
          <path d="M559.5,598.2c-0.1,0-0.1,0-0.2-0.1c-0.1-0.1-0.1-0.3,0-0.4c3.9-4.5,1.1-7.9,0.2-8.8c-0.1-0.1-0.1-0.3,0-0.4
					c0.1-0.1,0.3-0.1,0.4,0c0.7,0.7,4.2,4.6-0.2,9.7C559.7,598.2,559.6,598.2,559.5,598.2z" style="fill:#3e414e"></path>
        </g>
        <g>
          <path d="M593.8,585.3c0,1.8,1.4,3.2,3.2,3.2c0.2,0,0.4,0,0.6,0c-0.2-2.2-0.5-4.5-1.1-6.3
					C595,582.4,593.8,583.7,593.8,585.3z" style="fill:#3c4150"></path>
        </g>
      </g>
      <g>
        <g>
          <rect width="14.1" height="12.3" x="627.6" y="574.7" style="fill:#fff"></rect>
          <path d="M641.7,587.3h-14.1c-0.2,0-0.3-0.1-0.3-0.3v-12.3c0-0.2,0.1-0.3,0.3-0.3h14.1c0.2,0,0.3,0.1,0.3,0.3V587
					C642,587.2,641.9,587.3,641.7,587.3z M627.9,586.7h13.5V575h-13.5V586.7z" style="fill:#3e414e"></path>
        </g>
        <g>
          <path d="M613.8,598.6c5.2-0.2,13.8-3.7,16.8-3.4c2,0.2,8,0.4,11.9,0.4c2,0,3.6-1.6,3.6-3.6c0-1.1-0.1-2.3-0.2-3.6
					c-0.2-2.2-0.5-4.5-1.1-6.3c-0.3-0.8-0.5-1.5-0.9-2.1c-0.5-0.9-1.7-1.1-2.5-0.5c-2.2,1.7-6.8,4.8-9.4,3.6c-1.7-0.8-2.6-2.5-3.1-4
					c-0.4-1.2-1.9-1.5-2.8-0.6c-2.8,2.9-7.8,7.4-11.8,8.4c-5.8,1.4-12.3,3.6-12.6,6.7S608.6,598.8,613.8,598.6z" style="fill:#fff"></path>
          <path d="M613.2,598.9c-3.8,0-8.9-1.2-10.9-3.4c-0.6-0.7-0.9-1.4-0.9-2.1c0.2-2.6,4.4-4.9,12.8-6.9
					c3.9-0.9,9-5.6,11.6-8.3c0.5-0.5,1.2-0.7,1.9-0.5c0.7,0.2,1.2,0.6,1.4,1.3c0.4,1.3,1.3,3.1,3,3.8c2.5,1.2,7.2-2.1,9.1-3.5
					c0.5-0.3,1-0.5,1.6-0.4c0.6,0.1,1,0.5,1.3,1c0.3,0.6,0.6,1.3,0.9,2.2c0.5,1.7,0.9,3.8,1.1,6.4c0.1,1.1,0.2,2.3,0.2,3.7
					c0,1-0.4,2-1.1,2.8c-0.7,0.7-1.7,1.2-2.8,1.1c-4.2-0.1-10-0.2-12-0.4c-1.4-0.2-4.3,0.6-7.4,1.5c-3.1,0.9-6.7,1.8-9.3,1.9
					C613.6,598.9,613.4,598.9,613.2,598.9z M627.2,578.3c-0.4,0-0.7,0.1-1,0.4c-2.7,2.7-7.9,7.5-11.9,8.5c-8,1.9-12.1,4.1-12.3,6.4
					c0,0.5,0.2,1.1,0.7,1.6c2,2.1,7.3,3.3,11.1,3.2l0,0c2.6-0.1,6.1-1.1,9.2-1.9c3.3-0.9,6.1-1.7,7.6-1.5c2.2,0.3,9.5,0.4,11.9,0.4
					c0,0,0,0,0,0c0.9,0,1.7-0.3,2.3-1c0.6-0.6,0.9-1.4,0.9-2.3c0-1.3-0.1-2.5-0.2-3.6c-0.2-2.5-0.6-4.6-1.1-6.3
					c-0.3-0.8-0.6-1.5-0.9-2c-0.2-0.3-0.5-0.6-0.9-0.7c-0.4-0.1-0.8,0-1.1,0.3c-2.5,1.9-7,4.9-9.7,3.6c-1.5-0.7-2.6-2.1-3.3-4.2
					c-0.1-0.4-0.5-0.8-1-0.9C627.5,578.3,627.4,578.3,627.2,578.3z" style="fill:#3e414e"></path>
        </g>
        <g>
          <path d="M613.9,593.7c-0.1,0-0.3-0.1-0.3-0.3c0-0.2,0.1-0.3,0.3-0.3l25.9-3.6c0.2,0,0.3,0.1,0.3,0.3
					s-0.1,0.3-0.3,0.3L613.9,593.7C613.9,593.7,613.9,593.7,613.9,593.7z" style="fill:#3e414e"></path>
        </g>
        <g>
          <path d="M607.8,597.9c4.2-4.8,1-8.5,0.2-9.3" style="fill:#fff"></path>
          <path d="M607.8,598.2c-0.1,0-0.1,0-0.2-0.1c-0.1-0.1-0.1-0.3,0-0.4c3.9-4.5,1.1-7.9,0.2-8.8c-0.1-0.1-0.1-0.3,0-0.4
					c0.1-0.1,0.3-0.1,0.4,0c0.7,0.7,4.2,4.6-0.2,9.7C607.9,598.2,607.9,598.2,607.8,598.2z" style="fill:#3e414e"></path>
        </g>
        <g>
          <path d="M642.1,585.3c0,1.8,1.4,3.2,3.2,3.2c0.2,0,0.4,0,0.6,0c-0.2-2.2-0.5-4.5-1.1-6.3
					C643.2,582.4,642.1,583.7,642.1,585.3z" style="fill:#3c4150"></path>
        </g>
      </g>
      <g>
        <g>
          <polygon points="638.1 409.8 646.1 575.2 623.6 575.2 610.3 433.5 598.5 575.2 575.6 575.2 581 408" style="fill:#9ec9ef"></polygon>
        </g>
        <g>
          <path d="M646.1,575.5h-22.4c-0.2,0-0.3-0.1-0.3-0.3l-13.1-138.3l-11.5,138.3c0,0.2-0.1,0.3-0.3,0.3h-22.9
					c-0.1,0-0.2,0-0.2-0.1c-0.1-0.1-0.1-0.1-0.1-0.2l5.4-167.2c0-0.1,0-0.2,0.1-0.2c0.1-0.1,0.1-0.1,0.2-0.1l57.1,1.9
					c0.2,0,0.3,0.1,0.3,0.3l8,165.3c0,0.1,0,0.2-0.1,0.2C646.2,575.4,646.2,575.5,646.1,575.5z M623.9,574.9h21.8l-8-164.7
					l-56.5-1.9l-5.4,166.6h22.3L610,433.4c0-0.2,0.1-0.3,0.3-0.3c0,0,0,0,0,0c0.2,0,0.3,0.1,0.3,0.3L623.9,574.9z" style="fill:#3e414e"></path>
        </g>
      </g>
      <g>
        <path d="M638.2,412l7.9,163.2h-22.4c0,0,10-14.8,9-24.9c-1-10.1-5.7-15-5-25.7c0.6-10.6,6.1-41.7,1.7-53.4
				s-10.2-30.8-5.6-36.8c0,0-4.1-19,1.3-19.9C630.3,413.7,633.8,413.4,638.2,412z" style="fill:#77b6e5"></path>
      </g>
      <g>
        <path d="M589.9,415.1c0,0-7.1-1.4-9-3.1l-5.3,163.1h22.9c0,0-9.4-7.6-9.2-22.1c0.3-14.5,7.9-42.8,4.5-53.1
				s-4.5-43.8-1.3-50.3C595.6,443.2,589.9,415.1,589.9,415.1z" style="fill:#77b6e5"></path>
      </g>
      <g>
        <path d="M646.1,575.5h-22.4c-0.2,0-0.3-0.1-0.3-0.3l-13.1-138.3l-11.5,138.3c0,0.2-0.1,0.3-0.3,0.3h-22.9
				c-0.1,0-0.2,0-0.2-0.1c-0.1-0.1-0.1-0.1-0.1-0.2l5.4-167.2c0-0.1,0-0.2,0.1-0.2c0.1-0.1,0.1-0.1,0.2-0.1l57.1,1.9
				c0.2,0,0.3,0.1,0.3,0.3l8,165.3c0,0.1,0,0.2-0.1,0.2C646.2,575.4,646.2,575.5,646.1,575.5z M623.9,574.9h21.8l-8-164.7l-56.5-1.9
				l-5.4,166.6h22.3L610,433.4c0-0.2,0.1-0.3,0.3-0.3c0,0,0,0,0,0c0.2,0,0.3,0.1,0.3,0.3L623.9,574.9z" style="fill:#3e414e"></path>
      </g>
      <g>
        <path d="M536.4,345c-4.9-0.1-14.4-8.3-13.5-9.5c0.9-1.3,4.5,0.8,4.5,0.8s-4.2-2.2-3.5-3.7c0.7-1.5,4.4,1.4,4.4,1.4
				s-4.4-3.2-3-4.3s5.6,2.8,5.6,2.8s-11.6-9.7-9.4-11.6s12.3,10.4,12.3,10.4s-3.2-6.4-0.6-6.3s7.5,14.1,7.5,14.1
				C540,341.6,538.5,343.6,536.4,345z" style="fill:#fff"></path>
        <path d="M536.4,345.3C536.4,345.3,536.4,345.3,536.4,345.3c-4.4-0.1-12.4-6.4-13.7-9c-0.2-0.4-0.2-0.8,0-1
				c0.4-0.6,1.3-0.6,2.1-0.4c-0.9-0.8-1.6-1.7-1.2-2.5c0.1-0.3,0.4-0.5,0.7-0.6c0.4-0.1,0.9,0,1.4,0.2c-0.5-0.6-0.9-1.2-1-1.8
				c0-0.3,0.1-0.6,0.4-0.8c0.5-0.4,1.1-0.3,1.9,0c-2.8-2.6-6-6-6-7.8c0-0.4,0.1-0.7,0.4-0.9c0.3-0.2,0.6-0.3,1-0.3
				c2.5,0.2,8,6.2,10.5,9.1c-0.6-1.5-1.1-3.5-0.6-4.4c0.2-0.2,0.5-0.5,1.1-0.5c2.7,0.2,7.3,12.8,7.8,14.3c0,0.1,0,0.1,0,0.2
				c-1,2.6-2.5,4.6-4.6,6C536.6,345.3,536.5,345.3,536.4,345.3z M524,335.4c-0.3,0-0.6,0.1-0.8,0.3c0,0,0,0.1,0.2,0.6
				c1.5,2.5,9,8.3,12.9,8.4c1.9-1.3,3.2-3.1,4.2-5.5c-1.9-5.3-5.5-13.7-7.2-13.8c-0.3,0-0.5,0.1-0.5,0.2c-0.6,0.8,0.6,3.9,1.4,5.6
				c0.1,0.1,0,0.3-0.1,0.4c-0.1,0.1-0.3,0.1-0.4-0.1c-2.3-2.8-8.9-10.2-11.4-10.5c-0.2,0-0.4,0-0.5,0.1c-0.1,0.1-0.2,0.2-0.2,0.4
				c0,1.9,5.1,6.8,8.2,9.5c0.7,0.5,1.2,1,1.3,1.1c0.1,0.1,0.1,0.3,0,0.4s-0.3,0.1-0.4,0c-0.2-0.2-0.7-0.6-1.4-1.2
				c-1.5-1.2-3.2-2.2-3.9-1.7c-0.1,0.1-0.2,0.2-0.2,0.3c0,0.8,1.6,2.2,2.7,3.2c0.2,0.2,0.4,0.3,0.4,0.3c0.1,0.1,0.2,0.3,0.1,0.4
				s-0.3,0.2-0.4,0.1c-0.1,0-0.2-0.2-0.4-0.3c-1-0.8-2.6-1.7-3.3-1.5c-0.1,0-0.2,0.1-0.3,0.2c-0.4,0.9,1.7,2.4,3.1,3.1
				c0.1,0.1,0.2,0.1,0.3,0.2c0.1,0.1,0.2,0.3,0.1,0.4c-0.1,0.1-0.3,0.2-0.4,0.1c-0.1,0-0.2-0.1-0.3-0.2
				C526.1,335.8,524.8,335.4,524,335.4z" style="fill:#3e414e"></path>
      </g>
      <g>
        <path d="M641.5,336.2V407c0,2.6-1.8,4.8-4.3,5.3c-10.7,2.3-39,7.2-54.9,0.7c-2-0.8-3.3-2.8-3.3-5v-59.7" style="fill:#fff"></path>
        <path d="M603.5,416.6c-7.8,0-15.4-0.9-21.3-3.3c-2.1-0.9-3.5-2.9-3.5-5.3v-59.7c0-0.2,0.1-0.3,0.3-0.3
				s0.3,0.1,0.3,0.3V408c0,2.1,1.2,3.9,3.1,4.7c15.8,6.5,43.5,1.7,54.7-0.7c2.4-0.5,4.1-2.6,4.1-5v-70.7c0-0.2,0.1-0.3,0.3-0.3
				s0.3,0.1,0.3,0.3V407c0,2.7-1.9,5.1-4.5,5.6C630.2,414.1,616.6,416.6,603.5,416.6z" style="fill:#3e414e"></path>
      </g>
      <g>
        <path d="M633.3,340.8l3.5,22.7l-31.4-2.5l-1,13.1c2.4,1.1,40.1,7.9,47.6,4s3.2-49.6,0.4-54.8
				c-4.8-9-32.6-14.9-32.6-14.9s-31.5,6.4-35.3,12.2s-19.4,37.6-19.4,37.6l-24.1-23l-7.8,10c0,0,30.8,35,36.6,34.1
				c5.8-0.9,21.8-30.9,21.8-30.9" style="fill:#fff"></path>
        <path d="M643.3,379.7c-13.8,0-36.9-4.3-39-5.2c-0.1-0.1-0.2-0.2-0.2-0.3l1-13.1c0-0.1,0-0.2,0.1-0.2
				c0.1-0.1,0.1-0.1,0.2-0.1l31,2.4l-3.5-22.4c0-0.2,0.1-0.3,0.3-0.3c0.2,0,0.3,0.1,0.3,0.3l3.5,22.7c0,0.1,0,0.2-0.1,0.3
				c-0.1,0.1-0.2,0.1-0.2,0.1l-31.1-2.4l-0.9,12.6c3.9,1.4,40,7.6,47.1,3.9c0.9-0.5,1.7-1.8,2.4-3.8c3.8-12.3,0.2-46.3-2.1-50.5
				c-4.6-8.6-30.9-14.4-32.4-14.8c-1.6,0.3-31.5,6.5-35,12c-3.7,5.7-19.2,37.3-19.3,37.6c0,0.1-0.1,0.1-0.2,0.2
				c-0.1,0-0.2,0-0.3-0.1l-23.9-22.8l-7.5,9.5c10.5,11.9,31.1,33.8,36,33.8c0.1,0,0.1,0,0.2,0c5.6-0.9,21.5-30.5,21.6-30.8
				c0.1-0.1,0.3-0.2,0.4-0.1c0.1,0.1,0.2,0.3,0.1,0.4c-0.7,1.2-16.2,30.1-22.1,31.1c-5.9,0.9-35.7-32.8-36.9-34.2
				c-0.1-0.1-0.1-0.3,0-0.4l7.8-10c0.1-0.1,0.1-0.1,0.2-0.1c0.1,0,0.2,0,0.2,0.1l23.8,22.7c1.8-3.6,15.7-31.9,19.2-37.3
				c3.8-5.8,34.2-12,35.5-12.3c0,0,0.1,0,0.1,0c1.1,0.2,28,6.1,32.8,15.1c2.3,4.3,6,38.6,2.1,51c-0.7,2.2-1.6,3.6-2.7,4.2
				C650.5,379.3,647.3,379.7,643.3,379.7z" style="fill:#3e414e"></path>
      </g>
      <g>
        <path d="M653.4,326.7c0,0-7.8,12.7-6.8,16.6c1,3.9,1.6,21.9-0.9,23.4c-2.5,1.5-26.4,0.9-26.8,3
				c-0.4,2.1-6.1,6.2-6.1,6.2s32.5,7.2,40.1,1.4C660.6,371.6,653.4,326.7,653.4,326.7z" style="fill:#f4f4f4"></path>
      </g>
      <g>
        <path d="M569.7,379.7c-6.4,0-35.4-32.8-36.7-34.2c-0.1-0.1-0.1-0.3,0-0.4l7.9-10c0.1-0.1,0.1-0.1,0.2-0.1
				c0.1,0,0.2,0,0.2,0.1l23.8,22.7c1.8-3.6,15.7-31.9,19.2-37.3c3.8-5.8,34.2-12,35.5-12.3c0,0,0.1,0,0.1,0
				c1.1,0.2,28,6.1,32.8,15.1c2.4,4.5,6.4,38.4,2.4,50.8c-0.7,2.3-1.7,3.8-3,4.4c-7.6,3.7-45.2-2.8-47.8-4c-0.1-0.1-0.2-0.2-0.2-0.3
				l1-13.1c0-0.1,0-0.2,0.1-0.2c0.1-0.1,0.1-0.1,0.2-0.1l31,2.4l-3.5-22.4c0-0.2,0.1-0.3,0.3-0.3c0.2,0,0.3,0.1,0.3,0.3l3.5,22.7
				c0,0.1,0,0.2-0.1,0.3c-0.1,0.1-0.2,0.1-0.2,0.1l-31.1-2.4l-0.9,12.6c3.8,1.4,39.8,7.5,47.1,3.9c1.1-0.5,2-1.9,2.7-4
				c4-12.3,0-45.8-2.4-50.3c-4.6-8.6-30.9-14.4-32.4-14.8c-1.6,0.3-31.5,6.5-35,12c-3.7,5.7-19.2,37.3-19.3,37.6
				c0,0.1-0.1,0.1-0.2,0.2c-0.1,0-0.2,0-0.3-0.1l-23.9-22.8l-7.5,9.5c10.5,11.9,31.1,33.8,36,33.8c0.1,0,0.1,0,0.2,0
				c5.6-0.9,21.5-30.5,21.6-30.8c0.1-0.1,0.3-0.2,0.4-0.1c0.1,0.1,0.2,0.3,0.1,0.4c-0.7,1.2-16.2,30.1-22.1,31.1
				C569.8,379.6,569.8,379.7,569.7,379.7z" style="fill:#3e414e"></path>
      </g>
      <g>
        <g>
          <path d="M626.3,293.2c0,0,6.7-8.4,3.5-10.7c-3.2-2.3-6,3.7-7.2,4s0.3-5.2-0.8-7.7c-1-2.5-14.3-5.1-17.6-5.1
					c-3.3,0-5.4,9.2-5.4,9.2s-1.9-5.6,0-10.8c0,0-4.4-12.8,2-14.5c6.4-1.7,7.2,4.7,10.8,4.2c3.5-0.5,12.5-2.7,16.3,2
					c2.1,2.6,2.4,6.2,1.3,8.1c0,0,5.4,2.7,5.7,5.7C636,284.8,630.5,292.4,626.3,293.2z" style="fill:#3c4150"></path>
        </g>
        <g>
          <path d="M626.3,293.2l0.2,16.5l-15.2,12.6v-20.7c-8.5,0.5-11.2-8.3-12-14c-0.4-3.1-0.1-6.3,1.1-9.2
					c0.9-2.3,2.3-4.6,4-4.6c3.3,0,16.6,2.5,17.6,5.1c1,2.5-0.4,8.1,0.8,7.7s4-6.3,7.2-4C633.1,284.8,626.3,293.2,626.3,293.2z" style="fill:#fff"></path>
          <path d="M611.3,322.6c0,0-0.1,0-0.1,0c-0.1,0-0.2-0.2-0.2-0.3V302c-8.6,0.3-11.2-8.8-12-14.3
					c-0.5-3.2-0.1-6.4,1.1-9.3c1.3-3.2,2.7-4.8,4.2-4.8c3,0,16.7,2.4,17.8,5.2c0.5,1.3,0.4,3.4,0.4,5.1c0,1-0.1,2.3,0.1,2.5
					c0.2-0.1,0.7-0.7,1.2-1.3c1.5-1.8,3.7-4.5,6.2-2.7c0.5,0.4,0.9,0.9,1,1.6c0.4,3.1-3.8,8.6-4.4,9.4l0.2,16.4c0,0.1,0,0.2-0.1,0.2
					l-15.2,12.6C611.4,322.6,611.4,322.6,611.3,322.6z M611.3,301.4c0.1,0,0.2,0,0.2,0.1c0.1,0.1,0.1,0.1,0.1,0.2v20l14.6-12.1
					l-0.2-16.4c0-0.1,0-0.1,0.1-0.2c0-0.1,4.7-6,4.3-9c-0.1-0.5-0.3-0.9-0.7-1.2c-1.9-1.3-3.6,0.5-5.4,2.6c-0.6,0.8-1.1,1.3-1.5,1.5
					c-0.2,0.1-0.4,0-0.5-0.1c-0.4-0.3-0.4-1.2-0.3-3c0.1-1.6,0.2-3.6-0.3-4.8c-0.9-2.2-13.6-4.9-17.3-4.9c-1.2,0-2.5,1.5-3.7,4.4
					c-1.2,2.8-1.5,5.9-1.1,9C600.4,292.9,602.9,301.8,611.3,301.4C611.3,301.4,611.3,301.4,611.3,301.4z" style="fill:#3e414e"></path>
        </g>
        <g>
          <path d="M611.3,302c-0.2,0-0.3-0.1-0.3-0.3c0-0.2,0.1-0.3,0.3-0.3c1.3-0.1,2.7-0.4,4.2-0.9c0.2-0.1,0.3,0,0.4,0.2
					c0.1,0.2,0,0.3-0.2,0.4C614.2,301.6,612.7,301.9,611.3,302C611.3,302,611.3,302,611.3,302z" style="fill:#3e414e"></path>
        </g>
        <g>
          <path d="M616.4,281.8c0,0-0.1,0-0.1,0c-2.6-1.2-5,0-5,0c-0.1,0.1-0.3,0-0.4-0.1c-0.1-0.1,0-0.3,0.1-0.4
					c0.1-0.1,2.7-1.3,5.6,0c0.2,0.1,0.2,0.2,0.2,0.4C616.6,281.8,616.5,281.8,616.4,281.8z" style="fill:#3e414e"></path>
        </g>
        <g>
          <path d="M604.7,281.8c0,0-0.1,0-0.1,0c0,0-0.9-0.3-3,0c-0.2,0-0.3-0.1-0.3-0.3c0-0.2,0.1-0.3,0.3-0.3
					c2.3-0.3,3.3,0,3.3,0c0.2,0.1,0.2,0.2,0.2,0.4C604.9,281.7,604.8,281.8,604.7,281.8z" style="fill:#3e414e"></path>
        </g>
        <g>
          <circle cx="613.7" cy="285" r=".9" style="fill:#3c4150"></circle>
        </g>
        <g>
          <circle cx="604" cy="284.6" r=".9" style="fill:#3c4150"></circle>
        </g>
        <g>
          <path d="M606.7,291.3c-0.1,0-0.2,0-0.2-0.1c-0.1-0.1-0.1-0.2-0.1-0.3l1.5-6.9c0-0.2,0.2-0.3,0.4-0.2
					c0.2,0,0.3,0.2,0.2,0.4l-1.4,6.4l1.3-0.4c0.2,0,0.3,0.1,0.4,0.2c0,0.2-0.1,0.3-0.2,0.4L606.7,291.3
					C606.7,291.3,606.7,291.3,606.7,291.3z" style="fill:#3e414e"></path>
        </g>
        <g>
          <path d="M609.7,297.4c-1.8,0-3.6-0.9-3.7-0.9c-0.2-0.1-0.2-0.3-0.1-0.4c0.1-0.2,0.3-0.2,0.4-0.1c0,0,4,1.9,5.4,0.1
					c0.1-0.1,0.3-0.1,0.4,0c0.1,0.1,0.1,0.3,0,0.4C611.6,297.2,610.7,297.4,609.7,297.4z" style="fill:#3e414e"></path>
        </g>
      </g>
      <g>
        <path d="M604.6,371.8c-5,1.7-14.9,0.6-14.9-0.8c0-1.3,2.9-1.8,3.8-1.9c0,0,0,0,0.1,0c0.1,0,0.2,0,0.2,0l-0.3,0
				c-1,0.1-4.5,0.4-4.7-1c-0.2-1.4,3.3-1.4,4.2-1.4c0.2,0,0.2,0,0.2,0l-0.2,0c-1,0-5.2-0.3-4.7-1.8c0.4-1.1,2.9-1.2,4.7-1.1
				c0,0,0,0,0,0c0.7,0,1.3,0.1,1.5,0.1c0,0,0.1,0,0.1,0l-0.1,0c-0.2,0-0.7-0.1-1.5-0.1c0,0,0,0,0,0c-2.2-0.2-6.3-0.7-9.3-1.6
				c-2.2-0.6-3.7-1.4-3.5-2.3c0.3-1.1,2.6-1.1,5.4-0.8c4.5,0.5,10.4,2.1,10.7,2.2c0,0,0,0,0,0l0,0c-0.3-0.2-6.2-3.5-4.1-4.8
				c1.8-1.1,9.9,4.2,13,6.3L604.6,371.8z" style="fill:#fff"></path>
        <path d="M597.9,373c-3.6,0-7.1-0.5-8.1-1.3c-0.3-0.2-0.4-0.4-0.4-0.6c0-0.7,0.7-1.2,1.5-1.6
				c-1.2-0.1-2.2-0.5-2.4-1.3c-0.1-0.3,0-0.6,0.2-0.8c0.3-0.3,0.7-0.5,1.3-0.6c-0.8-0.2-1.5-0.5-1.8-0.9c-0.2-0.3-0.2-0.6-0.1-0.9
				c0.2-0.5,0.7-0.9,1.5-1.1c-1.9-0.3-4.1-0.7-5.9-1.2c-2.8-0.8-4-1.7-3.7-2.7c0.3-1.1,2.1-1.4,5.7-1c3,0.3,6.5,1.1,8.8,1.7
				c-1.4-0.9-3-2.2-3-3.3c0-0.3,0.1-0.7,0.6-1c1.7-1.1,8.2,2.9,13.3,6.4c0.1,0.1,0.1,0.2,0.1,0.3l-0.7,8.9c0,0.1-0.1,0.2-0.2,0.3
				C602.9,372.7,600.3,373,597.9,373z M593.5,369.4c-1.6,0.2-3.5,0.8-3.5,1.6c0,0,0.1,0.1,0.2,0.2c1.7,1,9.6,1.7,14.1,0.3l0.6-8.5
				c-6.7-4.5-11.5-6.9-12.5-6.2c-0.3,0.2-0.3,0.3-0.3,0.5c0,0.9,2.3,2.6,4.4,3.8c0.1,0.1,0.2,0.2,0.2,0.3c0,0.2-0.2,0.3-0.4,0.2
				c-1.5-0.4-6.6-1.7-10.6-2.2c-4.3-0.5-4.9,0.2-5,0.6c-0.2,0.6,1,1.3,3.2,2c3,0.8,7,1.3,9.2,1.6c0.5,0,1,0.1,1.5,0.1
				c0,0,0.1,0,0.1,0c0.2,0,0.3,0.2,0.2,0.3s-0.2,0.3-0.3,0.3c-0.2,0-0.8-0.1-1.5-0.1c-2.5-0.2-4.2,0.2-4.4,0.8c0,0.1,0,0.2,0.1,0.4
				c0.5,0.7,2.6,1,4.4,1l0,0l0,0c0,0,0,0,0,0l0.2,0c0.2,0,0.3,0.1,0.3,0.3c0,0.2-0.1,0.3-0.3,0.3c0,0-0.1,0-0.2,0
				c-1.6,0-3.4,0.1-3.8,0.7c-0.1,0.1-0.1,0.2-0.1,0.3c0.1,0.8,2.3,1,4.4,0.8l0.3,0c0.2,0,0.3,0.1,0.3,0.3c0,0.2-0.1,0.3-0.2,0.3
				c0,0-0.1,0-0.2,0C593.6,369.4,593.6,369.4,593.5,369.4L593.5,369.4C593.5,369.4,593.5,369.4,593.5,369.4z M604.6,371.8
				L604.6,371.8L604.6,371.8z" style="fill:#3e414e"></path>
      </g>
      <g>
        <path d="M604.4,374.1c0,0,26,5.7,37.1,5.2v16.8C641.5,396.2,614.8,377.7,604.4,374.1z" style="fill:#3c4150"></path>
      </g>
      <g>
        <path d="M579,383.4c0,0,31.3,26.9,62.5,17.2v6.5c0,2.6-1.8,4.8-4.3,5.3c-10.5,2.3-38.1,7.3-54.8,0.6
				c-2.1-0.8-3.4-2.8-3.4-5.1V383.4z" style="fill:#f4f4f4"></path>
      </g>
      <g>
        <path d="M604,416.6c-7.8,0-15.5-0.9-21.7-3.4c-2.2-0.9-3.6-3-3.6-5.3v-24.5c0-0.2,0.1-0.3,0.3-0.3s0.3,0.1,0.3,0.3
				v24.5c0,2.1,1.3,4,3.2,4.8c16.5,6.6,43.7,1.7,54.6-0.6c2.3-0.5,4-2.6,4-5v-6.5c0-0.2,0.1-0.3,0.3-0.3s0.3,0.1,0.3,0.3v6.5
				c0,2.7-1.9,5-4.5,5.6C630.4,414.1,617.1,416.6,604,416.6z" style="fill:#3e414e"></path>
      </g>
      <g>
        <g>
          <ellipse cx="390.3" cy="582.8" rx="107" ry="12.5" style="fill:#f4f4f4"></ellipse>
        </g>
        <g>
          <g>
            <path d="M465,582.4H325c-12.8,0-23.3-10.4-23.3-23.3V276.9c0-12.8,10.4-23.3,23.3-23.3h140
						c12.8,0,23.3,10.4,23.3,23.3v282.3C488.2,572,477.8,582.4,465,582.4z" style="fill:#fff"></path>
            <path d="M465,582.7H325c-13,0-23.6-10.6-23.6-23.6V276.9c0-13,10.6-23.6,23.6-23.6h140c13,0,23.6,10.6,23.6,23.6
						v282.3C488.5,572.1,477.9,582.7,465,582.7z M325,253.9c-12.7,0-22.9,10.3-22.9,22.9v282.3c0,12.7,10.3,22.9,22.9,22.9h140
						c12.7,0,22.9-10.3,22.9-22.9V276.9c0-12.7-10.3-22.9-22.9-22.9H325z" style="fill:#3e414e"></path>
          </g>
          <g>
            <g>
              <path d="M303.7,253.6h12.1c-7.8,0-14.1,6.3-14.1,14.1v300.7c0,7.8,6.3,14.1,14.1,14.1h-12.1
							c-7.8,0-14.1-6.3-14.1-14.1V267.7C289.7,259.9,296,253.6,303.7,253.6z" style="fill:#9ec9ef"></path>
            </g>
            <g>
              <path d="M315.8,582.7h-12.1c-7.9,0-14.4-6.4-14.4-14.4V267.7c0-7.9,6.4-14.4,14.4-14.4h12.1
							c0.2,0,0.3,0.1,0.3,0.3s-0.1,0.3-0.3,0.3c-7.6,0-13.8,6.2-13.8,13.8v300.7c0,7.6,6.2,13.8,13.8,13.8c0.2,0,0.3,0.1,0.3,0.3
							S316,582.7,315.8,582.7z M303.7,253.9c-7.6,0-13.8,6.2-13.8,13.8v300.7c0,7.6,6.2,13.8,13.8,13.8h8
							c-5.9-1.8-10.2-7.3-10.2-13.8V267.7c0-6.5,4.3-12,10.2-13.8H303.7z" style="fill:#3e414e"></path>
            </g>
          </g>
          <g>
            <path d="M293.9,568.3V267.7c0-7.8,6.3-14.1,14.1-14.1h-4.2c-7.8,0-14.1,6.3-14.1,14.1v300.7
						c0,7.8,6.3,14.1,14.1,14.1h4.2C300.2,582.4,293.9,576.1,293.9,568.3z" style="fill:#77b6e5"></path>
          </g>
          <g>
            <path d="M308,582.7h-4.2c-7.9,0-14.4-6.4-14.4-14.4V267.7c0-7.9,6.4-14.4,14.4-14.4h4.2c0.2,0,0.3,0.1,0.3,0.3
						s-0.1,0.3-0.3,0.3h-4.2c-7.6,0-13.8,6.2-13.8,13.8v300.7c0,7.6,6.2,13.8,13.8,13.8h4.2c0.2,0,0.3,0.1,0.3,0.3
						S308.1,582.7,308,582.7z" style="fill:#3e414e"></path>
          </g>
          <g>
            <path d="M470.1,574.8H319.9c-5.8,0-10.6-4.7-10.6-10.6V271c0-5.8,4.7-10.6,10.6-10.6h150.2
						c5.8,0,10.6,4.7,10.6,10.6v293.2C480.6,570.1,475.9,574.8,470.1,574.8z M319.9,261.1c-5.5,0-9.9,4.5-9.9,9.9v293.2
						c0,5.5,4.5,9.9,9.9,9.9h150.2c5.5,0,9.9-4.5,9.9-9.9V271c0-5.5-4.5-9.9-9.9-9.9H319.9z" style="fill:#3e414e"></path>
          </g>
          <g>
            <g>
              <path d="M439.7,277.6h-72.3c-2.2,0-4-1.8-4-4l0,0c0-2.2,1.8-4,4-4h72.3c2.2,0,4,1.8,4,4l0,0
							C443.7,275.8,441.9,277.6,439.7,277.6z" style="fill:#e1e4e1"></path>
              <path d="M439.7,277.9h-72.3c-2.4,0-4.3-1.9-4.3-4.3s1.9-4.3,4.3-4.3h72.3c2.4,0,4.3,1.9,4.3,4.3
							S442.1,277.9,439.7,277.9z M367.4,269.9c-2,0-3.7,1.7-3.7,3.7s1.7,3.7,3.7,3.7h72.3c2,0,3.7-1.7,3.7-3.7s-1.7-3.7-3.7-3.7
							H367.4z" style="fill:#3e414e"></path>
            </g>
            <g>
              <circle cx="350.3" cy="273.6" r="4" style="fill:#e1e4e1"></circle>
              <path d="M350.3,277.9c-2.4,0-4.3-1.9-4.3-4.3s1.9-4.3,4.3-4.3s4.3,1.9,4.3,4.3S352.6,277.9,350.3,277.9z
							 M350.3,269.9c-2,0-3.7,1.7-3.7,3.7s1.7,3.7,3.7,3.7s3.7-1.7,3.7-3.7S352.3,269.9,350.3,269.9z" style="fill:#3e414e"></path>
            </g>
          </g>
          <g>
            <g>
              <path d="M325,280.1h-8.6c-0.2,0-0.3-0.1-0.3-0.3s0.1-0.3,0.3-0.3h8.6c0.2,0,0.3,0.1,0.3,0.3
							S325.2,280.1,325,280.1z" style="fill:#3e414e"></path>
            </g>
            <g>
              <path d="M325,283.9h-8.6c-0.2,0-0.3-0.1-0.3-0.3s0.1-0.3,0.3-0.3h8.6c0.2,0,0.3,0.1,0.3,0.3
							S325.2,283.9,325,283.9z" style="fill:#3e414e"></path>
            </g>
            <g>
              <path d="M325,287.8h-8.6c-0.2,0-0.3-0.1-0.3-0.3s0.1-0.3,0.3-0.3h8.6c0.2,0,0.3,0.1,0.3,0.3
							S325.2,287.8,325,287.8z" style="fill:#3e414e"></path>
            </g>
            <g>
              <g>
                <circle cx="469.2" cy="283.6" r="4.3" style="fill:#e1e4e1"></circle>
                <path d="M469.2,288.3c-2.5,0-4.6-2.1-4.6-4.6s2.1-4.6,4.6-4.6s4.6,2.1,4.6,4.6S471.7,288.3,469.2,288.3z
								 M469.2,279.6c-2.2,0-4,1.8-4,4s1.8,4,4,4c2.2,0,4-1.8,4-4S471.4,279.6,469.2,279.6z" style="fill:#3e414e"></path>
              </g>
              <g>
                <path d="M467.7,285.4c-0.1,0-0.2,0-0.2-0.1c-0.1-0.1-0.1-0.3,0-0.4l2.9-2.9c0.1-0.1,0.3-0.1,0.4,0
								c0.1,0.1,0.1,0.3,0,0.4l-2.9,2.9C467.9,285.4,467.8,285.4,467.7,285.4z" style="fill:#3e414e"></path>
              </g>
              <g>
                <path d="M470.7,285.4c-0.1,0-0.2,0-0.2-0.1l-2.9-2.9c-0.1-0.1-0.1-0.3,0-0.4c0.1-0.1,0.3-0.1,0.4,0l2.9,2.9
								c0.1,0.1,0.1,0.3,0,0.4C470.8,285.4,470.7,285.4,470.7,285.4z" style="fill:#3e414e"></path>
              </g>
            </g>
          </g>
          <g>
            <g>
              <path d="M446,302.2H343.9c-0.2,0-0.3-0.1-0.3-0.3s0.1-0.3,0.3-0.3H446c0.2,0,0.3,0.1,0.3,0.3
							S446.2,302.2,446,302.2z" style="fill:#3e414e"></path>
            </g>
            <g>
              <path d="M442.3,309.2c-0.1,0-0.2,0-0.2-0.1c-0.1-0.1-0.1-0.3,0-0.4l6.8-6.8l-6.8-6.8c-0.1-0.1-0.1-0.3,0-0.4
							c0.1-0.1,0.3-0.1,0.4,0l7,7c0.1,0.1,0.1,0.1,0.1,0.2s0,0.2-0.1,0.2l-7,7C442.4,309.1,442.4,309.2,442.3,309.2z" style="fill:#3e414e"></path>
            </g>
            <g>
              <path d="M347.7,309.2c-0.1,0-0.2,0-0.2-0.1l-7-7c-0.1-0.1-0.1-0.3,0-0.4l7-7c0.1-0.1,0.3-0.1,0.4,0
							c0.1,0.1,0.1,0.3,0,0.4l-6.8,6.8l6.8,6.8c0.1,0.1,0.1,0.3,0,0.4C347.8,309.1,347.7,309.2,347.7,309.2z" style="fill:#3e414e"></path>
            </g>
          </g>
        </g>
      </g>
      <g>
        <g>
          <path d="M439.1,352.1H450c8.3,0,15.1-6.7,15.1-15.1S458.3,322,450,322H339.9c-8.3,0-15.1,6.7-15.1,15.1
					s6.7,15.1,15.1,15.1h100" style="fill:#fff"></path>
          <path d="M450,352.4H339.9c-8.5,0-15.4-6.9-15.4-15.4s6.9-15.4,15.4-15.4H450c8.5,0,15.4,6.9,15.4,15.4
					S458.5,352.4,450,352.4z M439.1,351.8H450c8.1,0,14.8-6.6,14.8-14.8s-6.6-14.8-14.8-14.8H339.9c-8.1,0-14.8,6.6-14.8,14.8
					s6.6,14.8,14.8,14.8H439.1z" style="fill:#3e414e"></path>
        </g>
        <g>
          <path d="M450,347.6h-15.4c-0.2,0-0.3-0.1-0.3-0.3v-20.4c0-0.2,0.1-0.3,0.3-0.3H450c5.8,0,10.5,4.7,10.5,10.5
					C460.5,342.9,455.8,347.6,450,347.6z M434.9,347H450c5.5,0,9.9-4.4,9.9-9.9c0-5.5-4.4-9.9-9.9-9.9h-15.1V347z" style="fill:#3e414e"></path>
        </g>
        <g>
          <g>
            <path d="M434.6,326.9v20.4h-94.7c-5.6,0-10.2-4.6-10.2-10.2c0-5.6,4.6-10.2,10.2-10.2H434.6z" style="fill:#9ec9ef"></path>
          </g>
          <g>
            <path d="M434.6,347.6h-94.7c-5.8,0-10.5-4.7-10.5-10.5c0-5.8,4.7-10.5,10.5-10.5h94.7c0.2,0,0.3,0.1,0.3,0.3v20.4
						C434.9,347.5,434.8,347.6,434.6,347.6z M339.9,327.2c-5.5,0-9.9,4.4-9.9,9.9c0,5.5,4.4,9.9,9.9,9.9h94.4v-19.8H339.9z" style="fill:#3e414e"></path>
          </g>
        </g>
        <g>
          <path d="M449.3,340c-2.5,0-4.5-2-4.5-4.5s2-4.5,4.5-4.5s4.5,2,4.5,4.5S451.8,340,449.3,340z M449.3,331.7
					c-2.1,0-3.9,1.7-3.9,3.9s1.7,3.9,3.9,3.9s3.9-1.7,3.9-3.9S451.4,331.7,449.3,331.7z" style="fill:#3e414e"></path>
        </g>
        <g>
          <path d="M442.5,342.7c-0.1,0-0.2,0-0.2-0.1c-0.1-0.1-0.1-0.3,0-0.4l3.9-3.9c0.1-0.1,0.3-0.1,0.4,0
					c0.1,0.1,0.1,0.3,0,0.4l-3.9,3.9C442.7,342.7,442.6,342.7,442.5,342.7z" style="fill:#3e414e"></path>
        </g>
      </g>
      <g>
        <path d="M379.5,435.2h-45.4c-2.5,0-4.5-2-4.5-4.5v-45.4c0-2.5,2-4.5,4.5-4.5h45.4c2.5,0,4.5,2,4.5,4.5v45.4
				C384,433.2,382,435.2,379.5,435.2z" style="fill:#fff"></path>
        <path d="M379.5,435.5h-45.4c-2.7,0-4.8-2.2-4.8-4.8v-45.4c0-2.7,2.2-4.8,4.8-4.8h45.4c2.7,0,4.8,2.2,4.8,4.8v45.4
				C384.3,433.3,382.1,435.5,379.5,435.5z M334.1,381c-2.3,0-4.2,1.9-4.2,4.2v45.4c0,2.3,1.9,4.2,4.2,4.2h45.4
				c2.3,0,4.2-1.9,4.2-4.2v-45.4c0-2.3-1.9-4.2-4.2-4.2H334.1z" style="fill:#3e414e"></path>
      </g>
      <g>
        <path d="M455.9,435.2h-45.4c-2.5,0-4.5-2-4.5-4.5v-45.4c0-2.5,2-4.5,4.5-4.5h45.4c2.5,0,4.5,2,4.5,4.5v45.4
				C460.4,433.2,458.4,435.2,455.9,435.2z" style="fill:#fff"></path>
        <path d="M455.9,435.5h-45.4c-2.7,0-4.8-2.2-4.8-4.8v-45.4c0-2.7,2.2-4.8,4.8-4.8h45.4c2.7,0,4.8,2.2,4.8,4.8v45.4
				C460.7,433.3,458.5,435.5,455.9,435.5z M410.5,381c-2.3,0-4.2,1.9-4.2,4.2v45.4c0,2.3,1.9,4.2,4.2,4.2h45.4
				c2.3,0,4.2-1.9,4.2-4.2v-45.4c0-2.3-1.9-4.2-4.2-4.2H410.5z" style="fill:#3e414e"></path>
      </g>
      <g>
        <path d="M379.5,510.6h-45.4c-2.5,0-4.5-2-4.5-4.5v-45.4c0-2.5,2-4.5,4.5-4.5h45.4c2.5,0,4.5,2,4.5,4.5v45.4
				C384,508.6,382,510.6,379.5,510.6z" style="fill:#fff"></path>
        <path d="M379.5,510.9h-45.4c-2.7,0-4.8-2.2-4.8-4.8v-45.4c0-2.7,2.2-4.8,4.8-4.8h45.4c2.7,0,4.8,2.2,4.8,4.8v45.4
				C384.3,508.7,382.1,510.9,379.5,510.9z M334.1,456.5c-2.3,0-4.2,1.9-4.2,4.2v45.4c0,2.3,1.9,4.2,4.2,4.2h45.4
				c2.3,0,4.2-1.9,4.2-4.2v-45.4c0-2.3-1.9-4.2-4.2-4.2H334.1z" style="fill:#3e414e"></path>
      </g>
      <g>
        <path d="M455.9,510.6h-45.4c-2.5,0-4.5-2-4.5-4.5v-45.4c0-2.5,2-4.5,4.5-4.5h45.4c2.5,0,4.5,2,4.5,4.5v45.4
				C460.4,508.6,458.4,510.6,455.9,510.6z" style="fill:#fff"></path>
        <path d="M455.9,510.9h-45.4c-2.7,0-4.8-2.2-4.8-4.8v-45.4c0-2.7,2.2-4.8,4.8-4.8h45.4c2.7,0,4.8,2.2,4.8,4.8v45.4
				C460.7,508.7,458.5,510.9,455.9,510.9z M410.5,456.5c-2.3,0-4.2,1.9-4.2,4.2v45.4c0,2.3,1.9,4.2,4.2,4.2h45.4
				c2.3,0,4.2-1.9,4.2-4.2v-45.4c0-2.3-1.9-4.2-4.2-4.2H410.5z" style="fill:#3e414e"></path>
      </g>
      <g>
        <g>
          <path d="M374.6,399.9l-4.8,30c-0.2,1.1-1.2,2-2.3,2h-21.6c-1.2,0-2.2-0.9-2.3-2l-4.5-30.1L374.6,399.9z" style="fill:#fff"></path>
          <path d="M367.4,432.2h-21.6c-1.3,0-2.4-1-2.6-2.3l-4.5-30.1c0-0.1,0-0.2,0.1-0.2c0.1-0.1,0.1-0.1,0.2-0.1h0
					l35.7,0.1c0.1,0,0.2,0,0.2,0.1c0.1,0.1,0.1,0.2,0.1,0.2l-4.8,30C369.9,431.3,368.7,432.2,367.4,432.2z M339.3,400.1l4.5,29.8
					c0.1,1,1,1.8,2,1.8h21.6c1,0,1.9-0.7,2-1.7l4.8-29.7L339.3,400.1z" style="fill:#3e414e"></path>
        </g>
        <g>
          <g>
            <polygon points="374.6 399.9 368.6 412.3 344.6 412.3 338.9 399.8" style="fill:#9ec9ef"></polygon>
          </g>
          <g>
            <path d="M368.6,412.6h-24.1c-0.1,0-0.2-0.1-0.3-0.2l-5.6-12.5c0-0.1,0-0.2,0-0.3s0.2-0.1,0.3-0.1h0l35.7,0.1
						c0.1,0,0.2,0.1,0.3,0.1c0.1,0.1,0.1,0.2,0,0.3l-6,12.4C368.9,412.6,368.7,412.6,368.6,412.6z M344.8,412h23.7l5.7-11.8
						l-34.7-0.1L344.8,412z" style="fill:#3e414e"></path>
          </g>
        </g>
        <g>
          <polygon points="373.2 402.8 374.6 399.9 338.9 399.8 340.2 402.7" style="fill:#77b6e5"></polygon>
        </g>
        <g>
          <path d="M372.5,399.9c0-0.4,0-0.9,0-1.4c0-8.1-2.3-14.6-5.2-14.6c-2.9,0-5.2,6.5-5.2,14.6c0,0.4,0,0.9,0,1.3
					L372.5,399.9z" style="fill:#e1e4e1"></path>
          <path d="M372.5,400.2L372.5,400.2l-10.4,0c-0.2,0-0.3-0.1-0.3-0.3c0-0.4,0-0.9,0-1.3c0-8.4,2.4-14.9,5.5-14.9
					s5.5,6.5,5.5,14.9c0,0.5,0,0.9,0,1.4C372.7,400.1,372.6,400.2,372.5,400.2z M362.4,399.6l9.8,0c0-0.3,0-0.7,0-1.1
					c0-7.7-2.2-14.3-4.9-14.3s-4.9,6.5-4.9,14.3C362.4,398.9,362.4,399.3,362.4,399.6z" style="fill:#3e414e"></path>
        </g>
        <g>
          <path d="M362,399.9c0-0.4,0-0.9,0-1.3c0-8.1-2.3-14.6-5.2-14.6c-2.9,0-5.2,6.5-5.2,14.6c0,0.4,0,0.9,0,1.3
					L362,399.9z" style="fill:#e1e4e1"></path>
          <path d="M362,400.2L362,400.2l-10.4,0c-0.2,0-0.3-0.1-0.3-0.3c0-0.4,0-0.9,0-1.3c0-8.4,2.4-14.9,5.5-14.9
					s5.5,6.5,5.5,14.9c0,0.5,0,0.9,0,1.3C362.2,400.1,362.1,400.2,362,400.2z M351.9,399.5l9.8,0c0-0.3,0-0.7,0-1
					c0-7.7-2.2-14.3-4.9-14.3s-4.9,6.5-4.9,14.3C351.9,398.9,351.9,399.2,351.9,399.5z" style="fill:#3e414e"></path>
        </g>
        <g>
          <path d="M351.4,399.9c0-0.4,0-0.9,0-1.3c0-8.1-2.3-14.6-5.2-14.6c-2.9,0-5.2,6.5-5.2,14.6c0,0.4,0,0.8,0,1.3
					L351.4,399.9z" style="fill:#e1e4e1"></path>
          <path d="M351.5,400.2L351.5,400.2l-10.4,0c-0.2,0-0.3-0.1-0.3-0.3c0-0.4,0-0.8,0-1.3c0-8.4,2.4-14.9,5.5-14.9
					s5.5,6.5,5.5,14.9c0,0.4,0,0.8,0,1.2l0,0.1C351.7,400,351.6,400.2,351.5,400.2z M341.4,399.5l9.8,0c0-0.3,0-0.7,0-1
					c0-7.7-2.2-14.3-4.9-14.3s-4.9,6.5-4.9,14.3C341.3,398.9,341.4,399.2,341.4,399.5z" style="fill:#3e414e"></path>
        </g>
        <g>
          <path d="M368.6,412.6h-24.1c-0.1,0-0.2-0.1-0.3-0.2l-5.6-12.5c0-0.1,0-0.2,0-0.3s0.2-0.1,0.3-0.1h0l35.7,0.1
					c0.1,0,0.2,0.1,0.3,0.1c0.1,0.1,0.1,0.2,0,0.3l-6,12.4C368.9,412.6,368.7,412.6,368.6,412.6z M344.8,412h23.7l5.7-11.8
					l-34.7-0.1L344.8,412z" style="fill:#3e414e"></path>
        </g>
      </g>
      <g>
        <g>
          <circle cx="433.2" cy="408" r="22.4" style="fill:#fff"></circle>
          <path d="M433.2,430.6c-12.5,0-22.7-10.2-22.7-22.7s10.2-22.7,22.7-22.7s22.7,10.2,22.7,22.7
					S445.7,430.6,433.2,430.6z M433.2,385.9c-12.2,0-22.1,9.9-22.1,22.1S421,430,433.2,430s22.1-9.9,22.1-22.1
					S445.3,385.9,433.2,385.9z" style="fill:#3e414e"></path>
        </g>
        <g>
          <circle cx="433.2" cy="408" r="18.5" style="fill:#9ec9ef"></circle>
        </g>
        <g>
          <path d="M433.2,389.5c-5.6,0-10.7,2.5-14.1,6.5c3.2-2.7,7.4-4.4,11.9-4.4c10.2,0,18.5,8.3,18.5,18.5
					c0,4.5-1.7,8.7-4.4,11.9c4-3.4,6.5-8.4,6.5-14.1C451.7,397.8,443.4,389.5,433.2,389.5z" style="fill:#77b6e5"></path>
        </g>
        <g>
          <path d="M438,397.1c4.2,1.1,7.6,3.3,9.6,7.2c0.8,1.5,0.9,3.2,0.3,4.7l-0.9,2.8c-0.3,0.8-0.9,1.4-1.6,1.6l-0.7,0.2
					c-0.8,0.3-1.5,0.8-2,1.5l-2.1,3.1c-0.4,0.5-1.1,0.8-1.8,0.6h0c-0.8-0.2-1.3-0.9-1.4-1.7l-0.1-2c0-0.1,0-0.3,0-0.4l-0.4-4
					c-0.3-2.6-0.2-5.1,0.2-7.7L438,397.1z" style="fill:#f08680"></path>
          <path d="M439.1,419.1c-0.2,0-0.3,0-0.5-0.1c-0.9-0.2-1.6-1-1.6-1.9l-0.1-2c0-0.1,0-0.2,0-0.4l-0.4-4
					c-0.3-2.6-0.2-5.2,0.2-7.8l1-6c0-0.1,0.1-0.2,0.1-0.2c0.1,0,0.2-0.1,0.2,0c4.6,1.2,7.8,3.5,9.8,7.3c0.8,1.5,0.9,3.3,0.3,5
					l-0.9,2.8c-0.3,0.9-1,1.5-1.8,1.8l-0.7,0.2c-0.8,0.2-1.4,0.7-1.8,1.4l-2.1,3.1C440.3,418.8,439.8,419.1,439.1,419.1z
					 M438.2,397.5l-0.9,5.6c-0.4,2.5-0.5,5.1-0.2,7.6l0.4,4c0,0.1,0,0.3,0,0.4l0.1,2c0,0.7,0.5,1.2,1.1,1.4c0.6,0.1,1.1-0.1,1.5-0.5
					l2-3.1c0.5-0.8,1.3-1.3,2.2-1.6l0.7-0.2c0.7-0.2,1.2-0.7,1.4-1.4l0.9-2.8c0.5-1.5,0.4-3.1-0.3-4.5
					C445.5,400.9,442.5,398.6,438.2,397.5z" style="fill:#3e414e"></path>
        </g>
        <g>
          <path d="M428.4,401.9L428.4,401.9l0.8-4.8c3.3,0.8,6,2.4,8,4.8l-0.1,11.2c-0.2,0.1-0.4,0.2-0.6,0.3l-0.7,0.2
					c-0.8,0.3-1.5,0.8-2,1.5l-2.1,3.1c-0.4,0.5-1.1,0.8-1.8,0.6c-0.8-0.2-1.3-0.9-1.4-1.7l-0.1-2c0-0.1,0-0.3,0-0.4l-0.1-0.6
					L428.4,401.9z" style="fill:#e1e4e1"></path>
          <path d="M430.3,419.1c-0.2,0-0.3,0-0.5,0c-0.9-0.2-1.6-1-1.6-1.9l-0.1-2.4l-0.1-0.6l0-12.2l0.8-4.9
					c0-0.1,0.1-0.2,0.1-0.2c0.1,0,0.2-0.1,0.2,0c3.6,0.9,6.2,2.5,8.2,4.9c0,0.1,0.1,0.1,0.1,0.2l-0.1,11.2c0,0.1-0.1,0.2-0.1,0.2
					c-0.2,0.1-0.4,0.2-0.6,0.3l-0.7,0.2c-0.8,0.2-1.4,0.7-1.8,1.4l-2.1,3.1C431.5,418.8,431,419.1,430.3,419.1z M428.7,401.9l0,12.2
					l0.1,1l0.1,2c0,0.7,0.5,1.2,1.1,1.4c0.6,0.1,1.1-0.1,1.5-0.5l2-3c0.5-0.8,1.3-1.4,2.2-1.6l0.7-0.2c0.1,0,0.3-0.1,0.4-0.2
					l0.1-10.9c-1.8-2.2-4.3-3.7-7.5-4.6L428.7,401.9z M428.7,402L428.7,402L428.7,402L428.7,402z M428.4,401.9L428.4,401.9
					L428.4,401.9z" style="fill:#3e414e"></path>
        </g>
        <g>
          <ellipse cx="426.4" cy="408" rx="6.8" ry="6.4" style="fill:#fff"></ellipse>
          <path d="M426.4,414.7c-3.9,0-7.1-3-7.1-6.7s3.2-6.7,7.1-6.7c3.9,0,7.1,3,7.1,6.7S430.3,414.7,426.4,414.7z
					 M426.4,401.9c-3.6,0-6.5,2.7-6.5,6.1s2.9,6.1,6.5,6.1s6.5-2.7,6.5-6.1S430,401.9,426.4,401.9z" style="fill:#3e414e"></path>
        </g>
      </g>
      <g>
        <g>
          <path d="M371.9,484.6h-2.2l-0.9-17.4c-0.1-1.1,0.8-1.9,1.8-1.9l0,0c1,0,1.9,0.9,1.8,1.9L371.9,484.6z" style="fill:#e1e4e1"></path>
          <path d="M371.9,484.9h-2.2c-0.2,0-0.3-0.1-0.3-0.3l-0.9-17.4c0-0.6,0.2-1.2,0.6-1.6c0.8-0.9,2.3-0.9,3.1,0
					c0.4,0.4,0.6,1,0.6,1.6l-0.6,17.4C372.2,484.8,372.1,484.9,371.9,484.9z M370.1,484.3h1.6l0.6-17.1c0-0.4-0.1-0.8-0.4-1.1
					c-0.6-0.6-1.6-0.6-2.2,0c-0.3,0.3-0.4,0.7-0.4,1.1L370.1,484.3z" style="fill:#3e414e"></path>
        </g>
        <g>
          <path d="M379.5,488.5c0,3.3-10.2,6-22.8,6c-12.6,0-22.8-2.7-22.8-6v0c0-3.3,10.2-5.9,22.8-5.9
					C369.3,482.6,379.5,485.2,379.5,488.5z" style="fill:#fff"></path>
          <path d="M356.7,494.8c-13,0-23.1-2.7-23.1-6.3c0-3.5,10.2-6.3,23.1-6.3c13,0,23.1,2.7,23.1,6.3
					S369.7,494.8,356.7,494.8z M356.7,482.9c-13.4,0-22.5,2.9-22.5,5.6c0,2.7,9,5.7,22.5,5.7c13.5,0,22.5-2.9,22.5-5.7
					S370.2,482.9,356.7,482.9z" style="fill:#3e414e"></path>
        </g>
        <g>
          <path d="M354.8,495.1c-0.3,0-0.6-0.3-0.6-0.6c0-0.2,0.1-0.3,0.2-0.4c0,0,0,0,0,0c0.2-0.2,0.6-0.2,0.9,0c0.2,0.2,0.2,0.6,0,0.8
					C355.2,495,355,495.1,354.8,495.1z"></path>
        </g>
        <g>
          <circle cx="354.8" cy="485.5" r="5" style="fill:#e1e4e1"></circle>
          <path d="M354.8,490.8c-2.9,0-5.3-2.4-5.3-5.3s2.4-5.3,5.3-5.3s5.3,2.4,5.3,5.3S357.7,490.8,354.8,490.8z
					 M354.8,480.8c-2.6,0-4.7,2.1-4.7,4.7s2.1,4.7,4.7,4.7s4.7-2.1,4.7-4.7S357.4,480.8,354.8,480.8z" style="fill:#3e414e"></path>
        </g>
        <g>
          <circle cx="351.8" cy="491.3" r="5" style="fill:#e1e4e1"></circle>
          <path d="M351.8,496.6c-2.9,0-5.3-2.4-5.3-5.3s2.4-5.3,5.3-5.3s5.3,2.4,5.3,5.3S354.7,496.6,351.8,496.6z
					 M351.8,486.7c-2.6,0-4.7,2.1-4.7,4.7s2.1,4.7,4.7,4.7s4.7-2.1,4.7-4.7S354.4,486.7,351.8,486.7z" style="fill:#3e414e"></path>
        </g>
        <g>
          <circle cx="344.3" cy="490.5" r="5" style="fill:#e1e4e1"></circle>
          <path d="M344.3,495.8c-2.9,0-5.3-2.4-5.3-5.3s2.4-5.3,5.3-5.3s5.3,2.4,5.3,5.3S347.2,495.8,344.3,495.8z
					 M344.3,485.8c-2.6,0-4.7,2.1-4.7,4.7s2.1,4.7,4.7,4.7s4.7-2.1,4.7-4.7S346.9,485.8,344.3,485.8z" style="fill:#3e414e"></path>
        </g>
        <g>
          <circle cx="341.8" cy="484.6" r="5" style="fill:#e1e4e1"></circle>
          <path d="M341.8,489.9c-2.9,0-5.3-2.4-5.3-5.3s2.4-5.3,5.3-5.3s5.3,2.4,5.3,5.3S344.8,489.9,341.8,489.9z M341.8,480
					c-2.6,0-4.7,2.1-4.7,4.7s2.1,4.7,4.7,4.7s4.7-2.1,4.7-4.7S344.4,480,341.8,480z" style="fill:#3e414e"></path>
        </g>
        <g>
          <circle cx="347.9" cy="482.6" r="5" style="fill:#e1e4e1"></circle>
          <path d="M347.9,487.8c-2.9,0-5.3-2.4-5.3-5.3s2.4-5.3,5.3-5.3s5.3,2.4,5.3,5.3S350.8,487.8,347.9,487.8z
					 M347.9,477.9c-2.6,0-4.7,2.1-4.7,4.7s2.1,4.7,4.7,4.7s4.7-2.1,4.7-4.7S350.5,477.9,347.9,477.9z" style="fill:#3e414e"></path>
        </g>
        <g>
          <polygon points="364 494.2 378.7 486.3 366 478.5" style="fill:#f08680"></polygon>
          <path d="M364,494.5c-0.1,0-0.1,0-0.2-0.1c-0.1-0.1-0.1-0.2-0.1-0.3l2-15.6c0-0.1,0.1-0.2,0.2-0.2c0.1,0,0.2,0,0.3,0
					l12.6,7.7c0.1,0.1,0.1,0.2,0.1,0.3s-0.1,0.2-0.2,0.3l-14.7,7.9C364.1,494.5,364,494.5,364,494.5z M366.2,479l-1.9,14.6l13.7-7.4
					L366.2,479z" style="fill:#3e414e"></path>
        </g>
        <g>
          <g>
            <path d="M379.6,495.5c0,3.3-10.2,6-22.9,6s-22.9-2.7-22.9-6v-7c0,3.3,10.2,6,22.8,6c12.6,0,22.8-2.7,22.8-6
						L379.6,495.5z" style="fill:#9ec9ef"></path>
          </g>
          <g>
            <path d="M356.8,501.7c-13,0-23.2-2.8-23.2-6.3v-7c0-0.2,0.1-0.3,0.3-0.3s0.3,0.1,0.3,0.3c0,2.7,9,5.7,22.5,5.7
						c13.5,0,22.5-2.9,22.5-5.7c0-0.2,0.1-0.3,0.3-0.3c0.2,0,0.3,0.1,0.3,0.3l0.1,7c0,0,0,0,0,0C379.9,499,369.8,501.7,356.8,501.7z
						 M334.2,490v5.5c0,2.7,9.1,5.7,22.6,5.7c13.5,0,22.6-2.9,22.6-5.7l-0.1-5.5c-2.3,2.8-11.4,4.8-22.5,4.8
						C345.6,494.8,336.5,492.8,334.2,490z" style="fill:#3e414e"></path>
          </g>
        </g>
        <g>
          <path d="M356.8,499.5c-12.6,0-22.9-2.7-22.9-6v1.9c0,3.3,10.2,6,22.9,6s22.9-2.7,22.9-6l0-1.6
					C379,497,369,499.5,356.8,499.5z" style="fill:#77b6e5"></path>
        </g>
        <g>
          <path d="M356.8,501.7c-13,0-23.2-2.8-23.2-6.3v-7c0-0.2,0.1-0.3,0.3-0.3s0.3,0.1,0.3,0.3c0,2.7,9,5.7,22.5,5.7
					c13.5,0,22.5-2.9,22.5-5.7c0-0.2,0.1-0.3,0.3-0.3c0.2,0,0.3,0.1,0.3,0.3l0.1,7c0,0,0,0,0,0C379.9,499,369.8,501.7,356.8,501.7z
					 M334.2,490v5.5c0,2.7,9.1,5.7,22.6,5.7c13.5,0,22.6-2.9,22.6-5.7l-0.1-5.5c-2.3,2.8-11.4,4.8-22.5,4.8
					C345.6,494.8,336.5,492.8,334.2,490z" style="fill:#3e414e"></path>
        </g>
      </g>
      <g>
        <g>
          <g>
            <g>
              <path d="M435.1,470.5h7.8l1.9,4.6l1.9-4.6h2.9c3.2,0,5.8,2.6,5.8,5.8c0,1.6-0.7,3.1-1.7,4.1
							c-1,1.1-2.5,1.7-4.1,1.7h-33c-3.2,0-5.8-2.6-5.8-5.8c0-1.6,0.7-3.1,1.7-4.1c1-1.1,2.5-1.7,4.1-1.7h2.9l1.9,4.6l1.9-4.6h7.8
							l1.9,4.6L435.1,470.5z" style="fill:#9ec9ef"></path>
            </g>
            <g>
              <path d="M449.7,482.4h-33c-3.4,0-6.1-2.7-6.1-6.1c0-1.6,0.6-3.2,1.8-4.3c1.1-1.2,2.7-1.8,4.3-1.8h2.9
							c0.1,0,0.2,0.1,0.3,0.2l1.7,3.9l1.7-3.9c0-0.1,0.2-0.2,0.3-0.2h7.8c0.1,0,0.2,0.1,0.3,0.2l1.7,3.9l1.7-3.9
							c0-0.1,0.2-0.2,0.3-0.2h7.8c0.1,0,0.2,0.1,0.3,0.2l1.7,3.9l1.7-3.9c0-0.1,0.2-0.2,0.3-0.2h2.9c3.4,0,6.1,2.7,6.1,6.1
							c0,1.6-0.6,3.2-1.8,4.3C452.9,481.8,451.3,482.4,449.7,482.4z M416.7,470.8c-1.5,0-2.9,0.6-3.9,1.6c-1,1-1.6,2.4-1.6,3.9
							c0,3,2.5,5.5,5.5,5.5h33c1.5,0,2.9-0.6,3.9-1.6c1-1,1.6-2.4,1.6-3.9c0-3-2.5-5.5-5.5-5.5H447l-1.9,4.4c-0.1,0.2-0.5,0.2-0.6,0
							l-1.9-4.4h-7.4l-1.9,4.4c-0.1,0.2-0.5,0.2-0.6,0l-1.9-4.4h-7.4l-1.9,4.4c-0.1,0.2-0.5,0.2-0.6,0l-1.9-4.4H416.7z" style="fill:#3e414e"></path>
            </g>
          </g>
          <g>
            <path d="M453.8,478.2c-1,1.1-2.5,1.7-4.1,1.7h-33c-2.8,0-5.2-2-5.7-4.7c-0.1,0.4-0.1,0.7-0.1,1.1
						c0,3.2,2.6,5.8,5.8,5.8h33c1.6,0,3.1-0.7,4.1-1.7c1.1-1,1.7-2.5,1.7-4.1c0-0.4,0-0.8-0.1-1.1
						C455.2,476.3,454.6,477.4,453.8,478.2z" style="fill:#77b6e5"></path>
          </g>
          <g>
            <path d="M449.7,482.4h-33c-3.4,0-6.1-2.7-6.1-6.1c0-1.6,0.6-3.2,1.8-4.3c1.1-1.2,2.7-1.8,4.3-1.8h2.9
						c0.1,0,0.2,0.1,0.3,0.2l1.7,3.9l1.7-3.9c0-0.1,0.2-0.2,0.3-0.2h7.8c0.1,0,0.2,0.1,0.3,0.2l1.7,3.9l1.7-3.9
						c0-0.1,0.2-0.2,0.3-0.2h7.8c0.1,0,0.2,0.1,0.3,0.2l1.7,3.9l1.7-3.9c0-0.1,0.2-0.2,0.3-0.2h2.9c3.4,0,6.1,2.7,6.1,6.1
						c0,1.6-0.6,3.2-1.8,4.3C452.9,481.8,451.3,482.4,449.7,482.4z M416.7,470.8c-1.5,0-2.9,0.6-3.9,1.6c-1,1-1.6,2.4-1.6,3.9
						c0,3,2.5,5.5,5.5,5.5h33c1.5,0,2.9-0.6,3.9-1.6c1-1,1.6-2.4,1.6-3.9c0-3-2.5-5.5-5.5-5.5H447l-1.9,4.4c-0.1,0.2-0.5,0.2-0.6,0
						l-1.9-4.4h-7.4l-1.9,4.4c-0.1,0.2-0.5,0.2-0.6,0l-1.9-4.4h-7.4l-1.9,4.4c-0.1,0.2-0.5,0.2-0.6,0l-1.9-4.4H416.7z" style="fill:#3e414e"></path>
          </g>
        </g>
        <g>
          <g>
            <path d="M435.1,484.6h7.8l1.9,4.6l1.9-4.6h2.9c3.2,0,5.8,2.6,5.8,5.8c0,1.6-0.7,3.1-1.7,4.1
						c-1,1.1-2.5,1.7-4.1,1.7h-33c-3.2,0-5.8-2.6-5.8-5.8c0-1.6,0.7-3.1,1.7-4.1c1-1.1,2.5-1.7,4.1-1.7h2.9l1.9,4.6l1.9-4.6h7.8
						l1.9,4.6L435.1,484.6z" style="fill:#f08680"></path>
            <path d="M449.7,496.6h-33c-3.4,0-6.1-2.7-6.1-6.1c0-1.6,0.6-3.2,1.8-4.3c1.1-1.2,2.7-1.8,4.3-1.8h2.9
						c0.1,0,0.2,0.1,0.3,0.2l1.7,3.9l1.7-3.9c0-0.1,0.2-0.2,0.3-0.2h7.8c0.1,0,0.2,0.1,0.3,0.2l1.7,3.9l1.7-3.9
						c0-0.1,0.2-0.2,0.3-0.2h7.8c0.1,0,0.2,0.1,0.3,0.2l1.7,3.9l1.7-3.9c0-0.1,0.2-0.2,0.3-0.2h2.9c3.4,0,6.1,2.7,6.1,6.1
						c0,1.6-0.6,3.2-1.8,4.3C452.9,496,451.3,496.6,449.7,496.6z M416.7,484.9c-1.5,0-2.9,0.6-3.9,1.6c-1,1-1.6,2.4-1.6,3.9
						c0,3,2.5,5.5,5.5,5.5h33c1.5,0,2.9-0.6,3.9-1.6c1-1,1.6-2.4,1.6-3.9c0-3-2.5-5.5-5.5-5.5H447l-1.9,4.4c-0.1,0.2-0.5,0.2-0.6,0
						l-1.9-4.4h-7.4l-1.9,4.4c-0.1,0.2-0.5,0.2-0.6,0l-1.9-4.4h-7.4l-1.9,4.4c-0.1,0.2-0.5,0.2-0.6,0l-1.9-4.4H416.7z" style="fill:#3e414e"></path>
          </g>
          <g>
            <path d="M453.8,492.3c-1,1.1-2.5,1.7-4.1,1.7h-33c-2.8,0-5.2-2-5.7-4.7c-0.1,0.4-0.1,0.7-0.1,1.1
						c0,3.2,2.6,5.8,5.8,5.8h33c1.6,0,3.1-0.7,4.1-1.7c1.1-1,1.7-2.5,1.7-4.1c0-0.4,0-0.8-0.1-1.1
						C455.2,490.5,454.6,491.5,453.8,492.3z" style="fill:#e16d69"></path>
          </g>
          <g>
            <path d="M449.7,496.6h-33c-3.4,0-6.1-2.7-6.1-6.1c0-1.6,0.6-3.2,1.8-4.3c1.1-1.2,2.7-1.8,4.3-1.8h2.9
						c0.1,0,0.2,0.1,0.3,0.2l1.7,3.9l1.7-3.9c0-0.1,0.2-0.2,0.3-0.2h7.8c0.1,0,0.2,0.1,0.3,0.2l1.7,3.9l1.7-3.9
						c0-0.1,0.2-0.2,0.3-0.2h7.8c0.1,0,0.2,0.1,0.3,0.2l1.7,3.9l1.7-3.9c0-0.1,0.2-0.2,0.3-0.2h2.9c3.4,0,6.1,2.7,6.1,6.1
						c0,1.6-0.6,3.2-1.8,4.3C452.9,496,451.3,496.6,449.7,496.6z M416.7,484.9c-1.5,0-2.9,0.6-3.9,1.6c-1,1-1.6,2.4-1.6,3.9
						c0,3,2.5,5.5,5.5,5.5h33c1.5,0,2.9-0.6,3.9-1.6c1-1,1.6-2.4,1.6-3.9c0-3-2.5-5.5-5.5-5.5H447l-1.9,4.4c-0.1,0.2-0.5,0.2-0.6,0
						l-1.9-4.4h-7.4l-1.9,4.4c-0.1,0.2-0.5,0.2-0.6,0l-1.9-4.4h-7.4l-1.9,4.4c-0.1,0.2-0.5,0.2-0.6,0l-1.9-4.4H416.7z" style="fill:#3e414e"></path>
          </g>
        </g>
      </g>
      <g>
        <g>
          <g>
            <g>
              <path d="M417.8,548.8h-45.7c-5.3,0-9.5-4.3-9.5-9.5l0,0c0-5.3,4.3-9.5,9.5-9.5h45.7c5.3,0,9.5,4.3,9.5,9.5l0,0
							C427.3,544.5,423.1,548.8,417.8,548.8z" style="fill:#9ec9ef"></path>
            </g>
            <g>
              <path d="M417.8,549.1h-45.7c-5.4,0-9.8-4.4-9.8-9.8s4.4-9.8,9.8-9.8h45.7c5.4,0,9.8,4.4,9.8,9.8
							S423.2,549.1,417.8,549.1z M372.1,530c-5.1,0-9.2,4.1-9.2,9.2s4.1,9.2,9.2,9.2h45.7c5.1,0,9.2-4.1,9.2-9.2s-4.1-9.2-9.2-9.2
							H372.1z" style="fill:#3e414e"></path>
            </g>
          </g>
          <g>
            <path d="M422.9,531.2c0.9,1.5,1.5,3.2,1.5,5.1v0c0,5.3-4.3,9.5-9.5,9.5h-45.7c-1.9,0-3.6-0.5-5.1-1.5
						c1.7,2.7,4.6,4.4,8,4.4h45.7c5.3,0,9.5-4.3,9.5-9.5v0C427.3,535.9,425.6,532.9,422.9,531.2z" style="fill:#77b6e5"></path>
          </g>
          <g>
            <path d="M417.8,549.1h-45.7c-5.4,0-9.8-4.4-9.8-9.8s4.4-9.8,9.8-9.8h45.7c5.4,0,9.8,4.4,9.8,9.8
						S423.2,549.1,417.8,549.1z M372.1,530c-5.1,0-9.2,4.1-9.2,9.2s4.1,9.2,9.2,9.2h45.7c5.1,0,9.2-4.1,9.2-9.2s-4.1-9.2-9.2-9.2
						H372.1z" style="fill:#3e414e"></path>
          </g>
        </g>
        <g>
          <path d="M388.1 539.3c0 2.9-1.7 4.4-3.8 4.4-2.2 0-3.7-1.7-3.7-4.2 0-2.6 1.6-4.4 3.8-4.4C386.7 535.1 388.1 536.9 388.1 539.3zM381.7 539.4c0 1.8 1 3.4 2.6 3.4 1.7 0 2.7-1.6 2.7-3.4 0-1.6-.9-3.4-2.6-3.4C382.6 536 381.7 537.6 381.7 539.4zM389.5 539.4c0-.7 0-1.3 0-1.9h.9l0 1.2h0c.3-.8.9-1.3 1.6-1.3.1 0 .2 0 .3 0v1c-.1 0-.2 0-.4 0-.8 0-1.3.6-1.5 1.4 0 .1 0 .3 0 .5v3.2h-1.1V539.4zM398.5 534.8v7.2c0 .5 0 1.1 0 1.5h-1l0-1h0c-.3.7-1.1 1.2-2 1.2-1.4 0-2.5-1.2-2.5-3 0-2 1.2-3.2 2.7-3.2.9 0 1.5.4 1.8.9h0v-3.6H398.5zM397.4 540c0-.1 0-.3 0-.5-.2-.7-.8-1.3-1.6-1.3-1.1 0-1.8 1-1.8 2.3 0 1.2.6 2.2 1.8 2.2.7 0 1.4-.5 1.6-1.3 0-.1 0-.3 0-.5V540zM400.9 540.8c0 1.5 1 2.1 2 2.1.8 0 1.2-.1 1.6-.3l.2.8c-.4.2-1 .4-2 .4-1.8 0-2.9-1.2-2.9-3 0-1.8 1.1-3.2 2.8-3.2 1.9 0 2.5 1.7 2.5 2.8 0 .2 0 .4 0 .5H400.9zM404.1 540c0-.7-.3-1.8-1.5-1.8-1.1 0-1.6 1-1.7 1.8H404.1zM406.5 539.4c0-.7 0-1.3 0-1.9h.9l0 1.2h0c.3-.8.9-1.3 1.6-1.3.1 0 .2 0 .3 0v1c-.1 0-.2 0-.4 0-.8 0-1.3.6-1.5 1.4 0 .1 0 .3 0 .5v3.2h-1.1V539.4z" style="fill:#fff"></path>
        </g>
      </g>
      <g>
        <g>
          <path d="M531.1,349H516c-2,0-3.6-1.6-3.6-3.6v-30.7c0-2,1.6-3.6,3.6-3.6h15.1c2,0,3.6,1.6,3.6,3.6v30.7
					C534.8,347.4,533.1,349,531.1,349z" style="fill:#3c4150"></path>
        </g>
        <g>
          <rect width="29.7" height="22.4" x="508.7" y="318.8" style="fill:#fff" transform="rotate(90 523.568 329.986)"></rect>
        </g>
        <g>
          <g>
            <path d="M525.4,313.5h-6.5c-0.2,0-0.3-0.1-0.3-0.3s0.1-0.3,0.3-0.3h6.5c0.2,0,0.3,0.1,0.3,0.3
						S525.5,313.5,525.4,313.5z" style="fill:#f4f4f4"></path>
          </g>
          <g>
            <path d="M528.3,313.5h-1.9c-0.2,0-0.3-0.1-0.3-0.3s0.1-0.3,0.3-0.3h1.9c0.2,0,0.3,0.1,0.3,0.3
						S528.5,313.5,528.3,313.5z" style="fill:#f4f4f4"></path>
          </g>
        </g>
        <g>
          <circle cx="523.6" cy="347" r="1.1" style="fill:#fff"></circle>
        </g>
      </g>
      <g>
        <path d="M540,336.7c0,0-4.5-12.7-7.2-11.4c0,0-1.5,0.8,1.7,7.1l0.5,1" style="fill:#fff"></path>
        <path d="M540,337c-0.1,0-0.2-0.1-0.3-0.2c-1-2.8-4.1-10.3-6.2-11.2c-0.2-0.1-0.4-0.1-0.6,0l0,0c0,0-1,1,1.9,6.7
				l0.5,1c0.1,0.2,0,0.3-0.1,0.4c-0.2,0.1-0.3,0-0.4-0.1l-0.5-1c-3.2-6.3-1.9-7.4-1.6-7.5c0.4-0.2,0.7-0.2,1.1,0
				c2.8,1.2,6.4,11.2,6.5,11.6c0.1,0.2,0,0.3-0.2,0.4C540,337,540,337,540,337z" style="fill:#3e414e"></path>
      </g>
      <g>
        <g>
          <polygon points="234.5 276.8 193.5 248.7 226.8 286.2" style="fill:#fff"></polygon>
          <path d="M226.8,286.5c-0.1,0-0.2,0-0.2-0.1l-33.4-37.6c-0.1-0.1-0.1-0.3,0-0.4c0.1-0.1,0.3-0.1,0.4,0l41,28.2
					c0.1,0,0.1,0.1,0.1,0.2c0,0.1,0,0.2-0.1,0.2l-7.7,9.4C227,286.5,226.9,286.5,226.8,286.5C226.8,286.5,226.8,286.5,226.8,286.5z
					 M195.3,250.3l31.5,35.4l7.2-8.9L195.3,250.3z" style="fill:#3e414e"></path>
        </g>
        <g>
          <g>
            <polygon points="226.8 286.2 219.6 289 193.5 248.7" style="fill:#9ec9ef"></polygon>
          </g>
          <g>
            <path d="M219.6,289.3c-0.1,0-0.2,0-0.3-0.1l-26.1-40.3c-0.1-0.1-0.1-0.3,0.1-0.4c0.1-0.1,0.3-0.1,0.4,0l33.4,37.6
						c0.1,0.1,0.1,0.2,0.1,0.3c0,0.1-0.1,0.2-0.2,0.2l-7.3,2.7C219.6,289.2,219.6,289.3,219.6,289.3z M195.9,251.9l23.8,36.7
						l6.6-2.5L195.9,251.9z" style="fill:#3e414e"></path>
          </g>
        </g>
        <g>
          <polygon points="193.5 248.7 223.6 295.3 223.6 318.6" style="fill:#fff"></polygon>
          <path d="M223.6,318.9c-0.1,0-0.2-0.1-0.3-0.2l-30.2-69.9c-0.1-0.1,0-0.3,0.1-0.4c0.1-0.1,0.3,0,0.4,0.1l30.2,46.6
					c0,0,0,0.1,0,0.2v23.3C223.9,318.8,223.8,318.9,223.6,318.9C223.7,318.9,223.6,318.9,223.6,318.9z M195.2,251.9l28.1,65.3v-21.8
					L195.2,251.9z" style="fill:#3e414e"></path>
        </g>
        <g>
          <g>
            <polygon points="215.7 300.3 206.1 300.3 193.5 248.7" style="fill:#9ec9ef"></polygon>
          </g>
          <g>
            <path d="M215.7,300.6h-9.6c-0.1,0-0.3-0.1-0.3-0.2l-12.6-51.6c0-0.2,0-0.3,0.2-0.4c0.1,0,0.3,0,0.4,0.2l22.2,51.6
						c0,0.1,0,0.2,0,0.3C215.9,300.5,215.8,300.6,215.7,300.6z M206.3,300h8.9l-20.6-47.9L206.3,300z" style="fill:#3e414e"></path>
          </g>
        </g>
      </g>
      <g>
        <path d="M284.8,438c-0.1,0-0.3-0.1-0.3-0.2c-0.7-2.6-1.6-4.7-2.8-6.5c-0.1-0.1-0.1-0.3,0.1-0.4
				c0.1-0.1,0.3-0.1,0.4,0.1c1.2,1.9,2.2,4.1,2.9,6.7C285.1,437.7,285,437.9,284.8,438C284.9,438,284.8,438,284.8,438z M276.8,426.4
				c-0.1,0-0.1,0-0.2,0c-1.8-1-4-1.9-6.7-2.5c-0.2,0-0.3-0.2-0.2-0.4c0-0.2,0.2-0.3,0.4-0.2c2.7,0.7,5,1.5,6.8,2.6
				c0.1,0.1,0.2,0.3,0.1,0.4C277,426.4,276.9,426.4,276.8,426.4z M262.9,422.6C262.9,422.6,262.8,422.6,262.9,422.6
				c-1.1-0.1-2.2-0.3-3.3-0.4c-1.3-0.2-2.6-0.3-4-0.5c-0.2,0-0.3-0.2-0.3-0.3c0-0.2,0.2-0.3,0.3-0.3c1.4,0.2,2.7,0.4,4,0.5
				c1.1,0.1,2.2,0.3,3.2,0.4c0.2,0,0.3,0.2,0.3,0.3C263.1,422.5,263,422.6,262.9,422.6z M248.5,420.5
				C248.5,420.5,248.5,420.4,248.5,420.5c-2.6-0.5-4.9-1.1-7.1-1.7c-0.2,0-0.3-0.2-0.2-0.4c0-0.2,0.2-0.3,0.4-0.2
				c2.2,0.6,4.5,1.2,7,1.7c0.2,0,0.3,0.2,0.2,0.4C248.8,420.4,248.7,420.5,248.5,420.5z M234.6,416.4c0,0-0.1,0-0.1,0
				c-1.3-0.5-2.6-1.1-3.9-1.7c-0.9-0.4-1.8-1-2.6-1.6c-0.1-0.1-0.2-0.3-0.1-0.4c0.1-0.1,0.3-0.2,0.4-0.1c0.8,0.6,1.6,1.1,2.5,1.6
				c1.3,0.6,2.5,1.2,3.8,1.7c0.2,0.1,0.2,0.2,0.2,0.4C234.8,416.3,234.7,416.4,234.6,416.4z M223.6,407.5c-0.1,0-0.2-0.1-0.3-0.2
				c-1.1-1.9-2-4.2-2.7-6.8c0-0.2,0-0.3,0.2-0.4c0.2,0,0.3,0,0.4,0.2c0.7,2.5,1.6,4.8,2.7,6.7c0.1,0.1,0,0.3-0.1,0.4
				C223.7,407.5,223.6,407.5,223.6,407.5z M219.4,393.7c-0.1,0-0.3-0.1-0.3-0.3c-0.3-2.2-0.6-4.7-0.7-7.2c0-0.2,0.1-0.3,0.3-0.3
				c0.2,0,0.3,0.1,0.3,0.3c0.1,2.6,0.4,5,0.7,7.2C219.7,393.6,219.6,393.7,219.4,393.7C219.4,393.7,219.4,393.7,219.4,393.7z
				 M218.5,379.3C218.5,379.3,218.5,379.3,218.5,379.3c-0.2,0-0.3-0.1-0.3-0.3c0-2.3,0.1-4.8,0.2-7.3c0-0.2,0.2-0.3,0.3-0.3
				c0.2,0,0.3,0.2,0.3,0.3c-0.1,2.5-0.2,4.9-0.2,7.2C218.8,379.1,218.7,379.3,218.5,379.3z M219.2,364.7
				C219.2,364.7,219.2,364.7,219.2,364.7c-0.2,0-0.3-0.2-0.3-0.3c0.2-2.3,0.5-4.8,0.8-7.2c0-0.2,0.2-0.3,0.3-0.3
				c0.2,0,0.3,0.2,0.3,0.3c-0.3,2.5-0.6,4.9-0.8,7.2C219.5,364.6,219.4,364.7,219.2,364.7z M221,350.3
				C220.9,350.3,220.9,350.3,221,350.3c-0.2,0-0.3-0.2-0.3-0.3c0.3-2.4,0.7-4.8,1.1-7.2c0-0.2,0.2-0.3,0.3-0.2
				c0.2,0,0.3,0.2,0.2,0.3c-0.4,2.4-0.8,4.8-1.1,7.2C221.2,350.2,221.1,350.3,221,350.3z M223.4,336C223.3,336,223.3,336,223.4,336
				c-0.2,0-0.3-0.2-0.3-0.4c0.4-2.3,0.9-4.7,1.4-7.1c0-0.2,0.2-0.3,0.4-0.2c0.2,0,0.3,0.2,0.2,0.4c-0.5,2.4-1,4.8-1.4,7.1
				C223.6,335.9,223.5,336,223.4,336z M226.3,321.8C226.2,321.8,226.2,321.8,226.3,321.8c-0.2,0-0.3-0.2-0.3-0.4
				c0.5-2.3,1.1-4.7,1.6-7.1c0-0.2,0.2-0.3,0.4-0.2c0.2,0,0.3,0.2,0.2,0.4c-0.6,2.4-1.1,4.7-1.6,7.1
				C226.5,321.7,226.4,321.8,226.3,321.8z M229.6,307.6C229.6,307.6,229.6,307.6,229.6,307.6c-0.2-0.1-0.3-0.2-0.3-0.4
				c1.1-4.4,1.9-7,1.9-7c0-0.2,0.2-0.3,0.4-0.2c0.2,0,0.3,0.2,0.2,0.4c0,0-0.8,2.7-1.9,7C229.9,307.5,229.8,307.6,229.6,307.6z" style="fill:#e1e4e1"></path>
      </g>
    </g>
  </g>
</svg>
